# xmcd CD database file
#
# Track frame offsets:
#	150
#	16120
#	34250
#	53777
#	70615
#	80885
#	94650
#	109285
#	120655
#	132447
#	150515
#	163130
#
# Disc length: 2351 seconds
#
# Revision: 0
# Processed by: cddbd v1.5.1PL2 Copyright (c) Steve Scherf et al.
# Submitted via: CDex 1.51
#
DISCID=9a092d0c
DTITLE=Various Artist - TAKE FIVE／The Best Jazz on TV-CM
DYEAR=1900
DGENRE=Jazz
TTITLE0=Quincy Joenes and his orchestra/TAKE FIVE
TTITLE1=Sarah Vaughan/LULLBY OF BIRDLAND
TTITLE2=Helen Merrill/YOU'D BE SO NICE TO COME HOME TO
TTITLE3=Dainah Washington/ALL OF ME
TTITLE4=Patti Page/TENDERLY
TTITLE5=Thelma Gracen/NIGHT AND DAY
TTITLE6=Clfford Brown/BLUE MOON
TTITLE7=Oscar Peterson/IT'S ONLY A PAPER MOON
TTITLE8=Billy Eckstine/MOON RIVER
TTITLE9=Karin Krong/SOMEONE TO WATCH OVER ME
TTITLE10=Sarah Vaughan/A LOVER'S CONCERT
TTITLE11=Patti Page/CHANGING PARTNERS
EXTD=
EXTT0=
EXTT1=
EXTT2=
EXTT3=
EXTT4=
EXTT5=
EXTT6=
EXTT7=
EXTT8=
EXTT9=
EXTT10=
EXTT11=
PLAYORDER=
